<svg xmlns="http://www.w3.org/2000/svg" xmlns:xlink="http://www.w3.org/1999/xlink" x="0px" y="0px" viewBox="0 0 100 100" style="enable-background:new 0 0 100 100;" xml:space="preserve"><g>	<path d="M16.7,78.5L16.7,78.5c-0.7,0.6-1.7,0.4-2.3-0.2c-0.5-0.7-0.4-1.7,0.2-2.2l0,0c0.7-0.6,1.7-0.4,2.2,0.3  C17.5,76.9,17.4,78,16.7,78.5z"></path>	<path d="M10.8,69.7L10.8,69.7c-0.8,0.4-1.8,0-2.1-0.8c-0.4-0.8,0-1.7,0.8-2.1l0,0c0.8-0.4,1.7,0,2.1,0.8  C11.9,68.4,11.6,69.3,10.8,69.7z"></path>	<path d="M7.1,59.8L7.1,59.8c-0.9,0.2-1.7-0.4-1.9-1.3c-0.2-0.8,0.4-1.7,1.3-1.9l0,0c0.9-0.2,1.7,0.4,1.9,1.3  C8.6,58.7,8,59.6,7.1,59.8z"></path>	<path d="M6,49.3L6,49.3c-0.9,0-1.6-0.8-1.5-1.7c0-0.9,0.8-1.6,1.7-1.5l0,0c0.9,0,1.5,0.8,1.5,1.7C7.6,48.6,6.9,49.3,6,49.3z"></path>	<path d="M7.4,38.8L7.4,38.8c-0.9-0.3-1.3-1.2-1.1-2c0.2-0.8,1.1-1.3,2-1.1l0,0c0.8,0.3,1.3,1.1,1.1,2C9.1,38.5,8.3,39,7.4,38.8z"></path>	<path d="M11.3,28.9L11.3,28.9c-0.8-0.5-1-1.5-0.6-2.2c0.4-0.7,1.4-1,2.2-0.6l0,0c0.8,0.4,1,1.4,0.6,2.2  C13,29.1,12.1,29.3,11.3,28.9z"></path>	<path d="M17.4,20.3L17.4,20.3c-0.6-0.6-0.6-1.7,0-2.3c0.6-0.6,1.6-0.6,2.3,0l0,0c0.6,0.6,0.6,1.6,0,2.3  C19.1,20.9,18,20.9,17.4,20.3z"></path>	<path d="M25.4,13.3L25.4,13.3c-0.5-0.8-0.2-1.8,0.5-2.2c0.7-0.5,1.7-0.2,2.2,0.5l0,0c0.5,0.7,0.2,1.7-0.5,2.2  C26.9,14.3,25.9,14.1,25.4,13.3z"></path>	<path d="M33.8,5.4c-0.1-0.4,0.1-0.8,0.5-0.9l4.4-1.3c0.3-0.1,0.7,0.1,0.8,0.4c0.1,0.3-0.1,0.7-0.4,0.8l-3.8,1.1l0.6,2.1l3.3-1  c0.3-0.1,0.7,0.1,0.8,0.4c0.1,0.3-0.1,0.7-0.4,0.8l-3.3,1l0.7,2.5c0.1,0.4-0.1,0.8-0.5,0.9c-0.4,0.1-0.8-0.1-0.9-0.5L33.8,5.4z"></path>	<path d="M42,9.5l2.3-6.8C44.3,2.3,44.6,2.1,45,2l0.1,0c0.4,0,0.7,0.1,0.9,0.5l3.6,6.2c0.1,0.1,0.1,0.2,0.1,0.3  c0,0.4-0.2,0.7-0.6,0.7c-0.3,0-0.6-0.1-0.7-0.4l-0.8-1.4l-3.8,0.4l-0.5,1.6c-0.1,0.3-0.3,0.5-0.6,0.5c-0.4,0-0.7-0.2-0.7-0.6  C41.9,9.7,41.9,9.6,42,9.5z M46.9,6.8l-1.7-3L44.1,7L46.9,6.8z"></path>	<path d="M51.4,8.9c-0.1-0.1-0.2-0.3-0.2-0.6c0-0.4,0.4-0.6,0.7-0.6c0.2,0,0.3,0.1,0.4,0.2c0.6,0.6,1.3,0.9,2.1,1  c0.9,0.1,1.4-0.3,1.5-0.8l0,0c0.1-0.6-0.2-0.9-1.7-1.4c-1.6-0.6-2.5-1.2-2.4-2.6l0,0c0.1-1.4,1.4-2.2,2.9-2c1,0.1,1.8,0.4,2.4,1  c0.1,0.1,0.3,0.3,0.2,0.6c0,0.4-0.4,0.6-0.7,0.6c-0.1,0-0.2-0.1-0.4-0.1c-0.6-0.5-1.1-0.7-1.8-0.8c-0.8-0.1-1.3,0.3-1.4,0.8l0,0  C53.2,4.7,53.5,5,55,5.5c1.6,0.6,2.4,1.3,2.3,2.6l0,0c-0.2,1.5-1.4,2.2-3.1,2.1C53.2,10.1,52.2,9.6,51.4,8.9z"></path>	<path d="M62.6,4.9l-1.8-0.5c-0.3-0.1-0.5-0.5-0.4-0.8c0.1-0.3,0.5-0.5,0.8-0.4l5,1.5c0.3,0.1,0.5,0.5,0.4,0.8  c-0.1,0.3-0.5,0.5-0.8,0.4L64,5.3l-1.7,5.8c-0.1,0.4-0.5,0.6-0.9,0.5c-0.4-0.1-0.6-0.5-0.5-0.9L62.6,4.9z"></path>	<path d="M71.7,11.5L71.7,11.5c0.5-0.8,1.5-1,2.2-0.5c0.7,0.5,1,1.4,0.5,2.2l0,0c-0.5,0.8-1.4,1-2.2,0.5  C71.4,13.2,71.2,12.3,71.7,11.5z"></path>	<path d="M80.2,17.8L80.2,17.8c0.6-0.6,1.7-0.6,2.3,0c0.6,0.6,0.6,1.6,0,2.3l0,0c-0.6,0.6-1.6,0.6-2.3,0  C79.6,19.4,79.6,18.4,80.2,17.8z"></path>	<path d="M87,25.9L87,25.9c0.8-0.5,1.8-0.2,2.2,0.6c0.4,0.7,0.2,1.7-0.6,2.2l0,0c-0.8,0.5-1.7,0.2-2.2-0.6  C86,27.4,86.2,26.4,87,25.9z"></path>	<path d="M91.6,35.5L91.6,35.5c0.9-0.3,1.8,0.2,2,1.1c0.2,0.8-0.2,1.7-1.1,2l0,0c-0.8,0.3-1.7-0.2-2-1.1  C90.3,36.6,90.8,35.7,91.6,35.5z"></path>	<path d="M93.8,45.8L93.8,45.8c0.9,0,1.7,0.6,1.7,1.5c0,0.9-0.6,1.6-1.5,1.7l0,0c-0.9,0-1.6-0.6-1.7-1.5  C92.3,46.6,92.9,45.9,93.8,45.8z"></path>	<path d="M93.5,56.4L93.5,56.4c0.9,0.2,1.5,1,1.3,1.9c-0.2,0.8-1,1.4-1.9,1.3l0,0c-0.9-0.2-1.4-1-1.3-1.9  C91.8,56.8,92.6,56.2,93.5,56.4z"></path>	<path d="M90.7,66.6L90.7,66.6c0.8,0.4,1.2,1.3,0.8,2.1c-0.4,0.8-1.3,1.2-2.1,0.8l0,0c-0.8-0.4-1.1-1.3-0.8-2.1  C88.9,66.6,89.9,66.2,90.7,66.6z"></path>	<path d="M85.5,75.8L85.5,75.8c0.7,0.6,0.8,1.6,0.3,2.3c-0.5,0.7-1.6,0.8-2.2,0.3l0,0c-0.7-0.5-0.8-1.6-0.3-2.2  C83.8,75.4,84.8,75.2,85.5,75.8z"></path>	<path d="M23.4,81.1c0.2-0.3,0.7-0.4,1-0.2l1.8,1.3c2,1.5,2.4,3.8,1.1,5.7l0,0c-1.3,1.8-3.7,2.2-5.7,0.8l-1.8-1.3  c-0.3-0.2-0.4-0.7-0.2-1L23.4,81.1z M22.4,87.6c1.4,1,2.9,0.7,3.8-0.6l0,0c0.9-1.3,0.7-2.8-0.7-3.8l-1.3-0.9l-3.1,4.4L22.4,87.6z"></path>	<path d="M28.2,92l2.7-6c0.2-0.4,0.6-0.5,0.9-0.4l4.2,1.9c0.3,0.1,0.5,0.5,0.3,0.8c-0.1,0.3-0.5,0.5-0.8,0.3l-3.6-1.6L31.1,89  l3.1,1.4c0.3,0.1,0.5,0.5,0.3,0.8c-0.1,0.3-0.5,0.4-0.8,0.3l-3.1-1.4l-0.9,1.9l3.6,1.6c0.3,0.1,0.5,0.5,0.3,0.8  c-0.1,0.3-0.5,0.5-0.8,0.3L28.6,93C28.2,92.8,28.1,92.4,28.2,92z"></path>	<path d="M38,88.9c0.1-0.4,0.5-0.6,0.8-0.5c0.4,0.1,0.6,0.5,0.5,0.8l-1.4,5.9l3.5,0.8c0.3,0.1,0.6,0.4,0.5,0.8  c-0.1,0.3-0.4,0.6-0.8,0.5l-4.2-1c-0.4-0.1-0.6-0.5-0.5-0.8L38,88.9z"></path>	<path d="M45.1,90.3c0-0.4,0.4-0.7,0.8-0.6c0.4,0,0.7,0.4,0.6,0.8l-0.7,6.6c0,0.4-0.4,0.7-0.8,0.6c-0.4,0-0.7-0.4-0.6-0.8L45.1,90.3  z"></path>	<path d="M51.2,97.5l-3-6.4c0-0.1-0.1-0.2-0.1-0.3c0-0.4,0.3-0.7,0.7-0.7c0.4,0,0.6,0.2,0.7,0.5l2.5,5.6l2.1-5.9  c0.1-0.2,0.3-0.5,0.6-0.5c0.4,0,0.7,0.3,0.7,0.6c0,0.1,0,0.2-0.1,0.3l-2.5,6.7c-0.1,0.4-0.4,0.6-0.8,0.6L52,98  C51.6,98,51.3,97.8,51.2,97.5z"></path>	<path d="M58.4,96.6l-1.5-6.3c-0.1-0.4,0.1-0.8,0.5-0.8l4.5-1.1c0.3-0.1,0.7,0.1,0.8,0.5c0.1,0.3-0.1,0.7-0.5,0.8l-3.8,0.9l0.5,2  l3.3-0.8c0.3-0.1,0.7,0.1,0.8,0.5c0.1,0.3-0.1,0.7-0.5,0.7l-3.3,0.8l0.5,2.1l3.9-0.9c0.3-0.1,0.7,0.1,0.8,0.5  c0.1,0.3-0.1,0.7-0.5,0.8l-4.5,1.1C58.9,97.2,58.5,97,58.4,96.6z"></path>	<path d="M64.3,88.3c-0.2-0.4,0-0.8,0.3-0.9l2.6-1.2c0.9-0.4,1.7-0.5,2.4-0.2c0.6,0.2,1,0.7,1.3,1.3l0,0c0.5,1.2,0.2,2.2-0.6,2.9  l2.2,1.1c0.2,0.1,0.3,0.2,0.4,0.4c0.2,0.3,0,0.7-0.3,0.9c-0.3,0.1-0.5,0.1-0.8,0L69,91l-1.6,0.7l0.9,1.9c0.2,0.4,0,0.8-0.3,0.9  c-0.4,0.2-0.8,0-0.9-0.3L64.3,88.3z M68.8,89.8c0.9-0.4,1.3-1.2,0.9-1.9l0,0c-0.4-0.8-1.1-0.9-2-0.5l-1.8,0.8l1.1,2.4L68.8,89.8z"></path>	<path d="M75.9,86.7l-4.4-1.4c-0.2-0.1-0.3-0.1-0.4-0.3c-0.2-0.3-0.1-0.7,0.2-1c0.2-0.2,0.5-0.2,0.8-0.1l3.7,1.3l-0.1-3.9  c0-0.3,0.1-0.6,0.3-0.7c0.3-0.2,0.7-0.2,0.9,0.2c0.1,0.2,0.1,0.3,0.1,0.5l0,4.6l1.5,2c0.2,0.3,0.2,0.7-0.2,1  c-0.3,0.2-0.7,0.2-1-0.2L75.9,86.7z"></path>	<path d="M76.5,62.2h-4.1c-0.3,0-0.6-0.3-0.6-0.6c0-0.3,0.3-0.6,0.6-0.6h3.4V50.3L71,40.5h-7.2c-0.3,0-0.6-0.3-0.6-0.6v-3.6H31.5  c-0.3,0-0.6-0.3-0.6-0.6c0-0.3,0.3-0.6,0.6-0.6h32.3c0.3,0,0.6,0.3,0.6,0.6v3.6h7c0.2,0,0.4,0.1,0.6,0.3L77,49.9  c0,0.1,0.1,0.2,0.1,0.3v11.4C77.1,61.9,76.8,62.2,76.5,62.2z"></path>	<path d="M62.7,62.2H47.3c-0.3,0-0.6-0.3-0.6-0.6c0-0.3,0.3-0.6,0.6-0.6h15.5c0.3,0,0.6,0.3,0.6,0.6C63.3,61.9,63.1,62.2,62.7,62.2z  "></path>	<path d="M37.6,62.2h-8.1c-0.3,0-0.6-0.3-0.6-0.6c0-0.3,0.3-0.6,0.6-0.6h8.1c0.3,0,0.6,0.3,0.6,0.6C38.2,61.9,38,62.2,37.6,62.2z"></path>	<g>		<path d="M67.6,67c-3,0-5.4-2.4-5.4-5.4c0-3,2.4-5.4,5.4-5.4s5.4,2.4,5.4,5.4C73,64.6,70.6,67,67.6,67z M67.6,57.3   c-2.3,0-4.2,1.9-4.2,4.2c0,2.3,1.9,4.2,4.2,4.2c2.3,0,4.2-1.9,4.2-4.2C71.8,59.2,69.9,57.3,67.6,57.3z"></path>		<path d="M42.4,67c-3,0-5.4-2.4-5.4-5.4c0-3,2.4-5.4,5.4-5.4s5.4,2.4,5.4,5.4C47.9,64.6,45.4,67,42.4,67z M42.4,57.3   c-2.3,0-4.2,1.9-4.2,4.2c0,2.3,1.9,4.2,4.2,4.2c2.3,0,4.2-1.9,4.2-4.2C46.6,59.2,44.8,57.3,42.4,57.3z"></path>	</g>	<g>		<path d="M30.4,55.5H18.2c-0.3,0-0.6-0.3-0.6-0.6c0-0.3,0.3-0.6,0.6-0.6h12.2c0.3,0,0.6,0.3,0.6,0.6C31,55.3,30.7,55.5,30.4,55.5z"></path>		<path d="M34.8,49.2H22.6c-0.3,0-0.6-0.3-0.6-0.6c0-0.3,0.3-0.6,0.6-0.6h12.2c0.3,0,0.6,0.3,0.6,0.6C35.4,49,35.1,49.2,34.8,49.2z"></path>		<path d="M39.2,42.9H27c-0.3,0-0.6-0.3-0.6-0.6c0-0.3,0.3-0.6,0.6-0.6h12.2c0.3,0,0.6,0.3,0.6,0.6C39.8,42.7,39.5,42.9,39.2,42.9z"></path>	</g>	<path d="M72.1,50.7h-8.3c-0.3,0-0.6-0.3-0.6-0.6v-6.6c0-0.3,0.3-0.6,0.6-0.6s0.6,0.3,0.6,0.6v5.9h7.6c0.3,0,0.6,0.3,0.6,0.6  C72.7,50.5,72.4,50.7,72.1,50.7z"></path></g></svg>