<svg xmlns="http://www.w3.org/2000/svg" xmlns:xlink="http://www.w3.org/1999/xlink" x="0px" y="0px" viewBox="0 0 100 100" style="enable-background:new 0 0 100 100;" xml:space="preserve"><g>	<g>		<path d="M17.1,78.9L17.1,78.9c-0.7,0.6-1.7,0.5-2.3-0.2c-0.5-0.7-0.5-1.7,0.2-2.2l0,0c0.7-0.6,1.7-0.4,2.2,0.2   C17.9,77.4,17.8,78.4,17.1,78.9z"></path>		<path d="M11.4,70.7L11.4,70.7c-0.8,0.4-1.8,0.1-2.2-0.7c-0.4-0.8-0.1-1.7,0.7-2.1l0,0c0.8-0.4,1.7-0.1,2.1,0.7   C12.5,69.4,12.2,70.4,11.4,70.7z"></path>		<path d="M7.7,61.5L7.7,61.5c-0.9,0.2-1.7-0.3-1.9-1.2c-0.2-0.8,0.3-1.7,1.2-1.9l0,0c0.9-0.2,1.7,0.3,1.9,1.2   C9.1,60.4,8.5,61.3,7.7,61.5z"></path>		<path d="M6.2,51.7L6.2,51.7c-0.9,0-1.6-0.7-1.6-1.6c0-0.9,0.7-1.6,1.6-1.6h0c0.9,0,1.6,0.7,1.6,1.6C7.8,50.9,7.1,51.7,6.2,51.7z"></path>		<path d="M6.9,41.7L6.9,41.7c-0.9-0.2-1.4-1.1-1.2-1.9c0.2-0.8,1-1.4,1.9-1.2l0,0c0.9,0.2,1.4,1.1,1.2,1.9   C8.6,41.3,7.8,41.9,6.9,41.7z"></path>		<path d="M9.9,32.2L9.9,32.2c-0.8-0.4-1.1-1.4-0.8-2.1c0.4-0.8,1.3-1.1,2.1-0.7l0,0c0.8,0.4,1.1,1.3,0.7,2.1   C11.6,32.2,10.7,32.6,9.9,32.2z"></path>		<path d="M12.3,21.5c-0.3-0.3-0.3-0.7-0.1-1l3-3.5c0.2-0.3,0.6-0.3,0.9-0.1c0.3,0.2,0.3,0.6,0.1,0.9l-2.5,3l1.6,1.4l2.2-2.6   c0.2-0.3,0.6-0.3,0.9-0.1c0.3,0.2,0.3,0.6,0.1,0.9l-2.2,2.6l2,1.7c0.3,0.2,0.3,0.7,0.1,1c-0.3,0.3-0.7,0.3-1,0.1L12.3,21.5z"></path>		<path d="M18.1,15.2c-0.2-0.3-0.2-0.7,0.1-1l2.2-1.8c0.8-0.6,1.6-0.9,2.3-0.8c0.6,0.1,1.1,0.4,1.6,0.9l0,0c0.8,1,0.7,2,0.1,3   l2.4,0.5c0.2,0,0.4,0.1,0.5,0.3c0.2,0.3,0.1,0.7-0.1,0.9c-0.2,0.2-0.5,0.2-0.8,0.1l-3-0.7L22,17.8l1.3,1.7c0.2,0.3,0.2,0.7-0.1,1   c-0.3,0.2-0.7,0.2-1-0.1L18.1,15.2z M22.8,15.5c0.8-0.6,0.9-1.4,0.4-2l0,0c-0.5-0.7-1.3-0.6-2.1,0l-1.6,1.3l1.7,2.1L22.8,15.5z"></path>		<path d="M28.8,15.2l-3-5.8c-0.2-0.4-0.1-0.8,0.3-0.9l4.1-2.1c0.3-0.2,0.7,0,0.8,0.3c0.2,0.3,0,0.7-0.3,0.8l-3.5,1.8l1,1.8l3-1.6   c0.3-0.2,0.7,0,0.8,0.3c0.2,0.3,0,0.7-0.3,0.8l-3,1.6l1,1.9l3.5-1.8c0.3-0.2,0.7,0,0.8,0.3c0.2,0.3,0,0.7-0.3,0.8l-4.1,2.2   C29.4,15.7,29,15.6,28.8,15.2z"></path>		<path d="M35.6,11.8l-1.9-6.2c-0.1-0.4,0.1-0.8,0.5-0.9l4.4-1.3c0.3-0.1,0.7,0.1,0.8,0.4c0.1,0.3-0.1,0.7-0.4,0.8l-3.7,1.1l0.6,2   l3.3-1c0.3-0.1,0.7,0.1,0.8,0.4c0.1,0.3-0.1,0.7-0.4,0.8l-3.3,1l0.6,2l3.8-1.1c0.3-0.1,0.7,0.1,0.8,0.4c0.1,0.3-0.1,0.7-0.4,0.8   l-4.5,1.3C36.1,12.4,35.8,12.2,35.6,11.8z"></path>		<path d="M51.8,9.9L51,9.1c-0.7,0.7-1.5,1.1-2.4,1.1c-1.5,0-2.6-0.8-2.6-2.2v0c0-1,0.6-1.8,1.6-2.2c-0.5-0.6-0.7-1.1-0.7-1.6l0,0   c0-1.1,0.8-2,2.2-2c1.3,0,2.1,0.8,2.1,1.9l0,0c0,1-0.7,1.7-1.7,2.1L51,7.3c0.2-0.3,0.4-0.7,0.6-1.1c0.1-0.1,0.2-0.3,0.5-0.3   c0.3,0,0.6,0.3,0.6,0.6c0,0.1,0,0.2-0.1,0.3c-0.3,0.5-0.5,1-0.8,1.4L52.7,9c0.1,0.1,0.2,0.3,0.2,0.5c0,0.3-0.2,0.6-0.6,0.6   C52.1,10.1,52,10,51.8,9.9z M50.2,8.3l-1.8-1.8c-0.7,0.3-1,0.8-1,1.3l0,0c0,0.7,0.6,1.1,1.3,1.1C49.3,9,49.7,8.7,50.2,8.3z    M50.1,4L50.1,4c0-0.6-0.4-0.9-0.9-0.9c-0.6,0-0.9,0.4-0.9,1l0,0c0,0.4,0.2,0.7,0.6,1.2C49.7,4.9,50.1,4.6,50.1,4z"></path>		<path d="M58,10l1.7-6.3c0.1-0.4,0.5-0.6,0.9-0.5L65,4.5c0.3,0.1,0.5,0.4,0.4,0.8c-0.1,0.3-0.4,0.5-0.8,0.4l-3.8-1l-0.5,2l3.3,0.9   C64,7.6,64.2,8,64.1,8.3c-0.1,0.3-0.4,0.5-0.8,0.4l-3.3-0.9l-0.6,2l3.8,1c0.3,0.1,0.5,0.4,0.4,0.8c-0.1,0.3-0.4,0.5-0.8,0.4   l-4.5-1.2C58.1,10.8,57.9,10.4,58,10z"></path>		<path d="M65.1,11.8l5.6-4.5c0.3-0.2,0.6-0.3,1-0.1l0.1,0c0.4,0.2,0.5,0.5,0.5,0.9l-0.4,7.2c0,0.1,0,0.2-0.1,0.3   c-0.2,0.3-0.6,0.5-0.9,0.3c-0.3-0.1-0.4-0.4-0.4-0.7l0.1-1.6l-3.4-1.7l-1.3,1.1c-0.2,0.2-0.5,0.2-0.8,0.1   c-0.3-0.2-0.4-0.5-0.3-0.9C64.9,12,65,11.9,65.1,11.8z M70.7,12.2L71,8.7l-2.7,2.2L70.7,12.2z"></path>		<path d="M73.1,16.2c-0.1-0.2,0-0.4,0.1-0.6c0.2-0.3,0.6-0.3,0.9-0.1c0.2,0.1,0.2,0.2,0.2,0.3c0.2,0.8,0.6,1.5,1.2,2   c0.7,0.5,1.3,0.6,1.7,0.1l0,0c0.4-0.4,0.3-0.9-0.6-2.1c-1.1-1.4-1.5-2.3-0.6-3.5l0,0c0.8-1.1,2.3-1.1,3.5-0.1   c0.8,0.6,1.2,1.3,1.5,2.1c0.1,0.2,0.1,0.4-0.1,0.6c-0.2,0.3-0.6,0.3-0.9,0.1c-0.1-0.1-0.2-0.2-0.2-0.3c-0.2-0.7-0.6-1.2-1.1-1.6   c-0.6-0.5-1.3-0.5-1.6-0.1l0,0c-0.4,0.5-0.3,0.9,0.7,2.1c1.1,1.4,1.4,2.4,0.5,3.4l0,0c-0.9,1.2-2.4,1.1-3.7,0.1   C74,18.2,73.4,17.3,73.1,16.2z"></path>		<path d="M82,21.3l1-4.5c0-0.2,0.1-0.3,0.3-0.4c0.3-0.2,0.7-0.2,1,0.1c0.2,0.2,0.2,0.5,0.1,0.8l-1,3.7l3.9-0.4c0.3,0,0.6,0,0.8,0.2   c0.3,0.3,0.2,0.7-0.1,1c-0.1,0.1-0.3,0.2-0.5,0.2L83,22.3l-1.9,1.6c-0.3,0.3-0.7,0.2-1-0.1c-0.3-0.3-0.2-0.7,0.1-1L82,21.3z"></path>		<path d="M88.6,29.1L88.6,29.1c0.8-0.4,1.8-0.1,2.2,0.7c0.4,0.8,0.1,1.7-0.7,2.1l0,0c-0.8,0.4-1.7,0.1-2.1-0.7   C87.5,30.5,87.8,29.5,88.6,29.1z"></path>		<path d="M92.3,38.4L92.3,38.4c0.9-0.2,1.7,0.3,1.9,1.2c0.2,0.8-0.3,1.7-1.2,1.9l0,0c-0.9,0.2-1.7-0.3-1.9-1.2   C90.9,39.4,91.5,38.6,92.3,38.4z"></path>		<path d="M93.8,48.1L93.8,48.1c0.9,0,1.6,0.7,1.6,1.6c0,0.9-0.7,1.6-1.6,1.6l0,0c-0.9,0-1.6-0.7-1.6-1.6   C92.2,48.9,92.9,48.1,93.8,48.1z"></path>		<path d="M93.1,58.1L93.1,58.1c0.9,0.2,1.4,1.1,1.2,1.9c-0.2,0.8-1,1.4-1.9,1.2l0,0c-0.9-0.2-1.4-1.1-1.2-1.9   C91.4,58.5,92.2,57.9,93.1,58.1z"></path>		<path d="M90.1,67.6L90.1,67.6c0.8,0.4,1.1,1.4,0.7,2.1c-0.4,0.8-1.3,1.1-2.1,0.7l0,0c-0.8-0.4-1.1-1.3-0.7-2.1   C88.4,67.6,89.3,67.3,90.1,67.6z"></path>		<path d="M85.1,76.2L85.1,76.2c0.7,0.6,0.8,1.6,0.2,2.3c-0.5,0.7-1.6,0.8-2.2,0.2l0,0c-0.7-0.6-0.8-1.6-0.2-2.2   C83.4,75.8,84.4,75.7,85.1,76.2z"></path>	</g>	<g>		<g>			<path d="M24.5,81.9c0.2-0.3,0.6-0.4,1-0.2l2.3,1.6c0.8,0.6,1.3,1.2,1.4,1.9c0.1,0.6,0,1.2-0.4,1.8l0,0c-0.7,1-1.8,1.3-2.8,0.9    l0.2,2.4c0,0.2,0,0.4-0.1,0.6c-0.2,0.3-0.6,0.3-0.9,0.2c-0.3-0.2-0.3-0.4-0.4-0.7l-0.2-3.1l-1.4-1l-1.2,1.8    c-0.2,0.3-0.6,0.4-1,0.2c-0.3-0.2-0.4-0.6-0.2-1L24.5,81.9z M25.5,86.4c0.8,0.6,1.6,0.5,2.1-0.2l0,0c0.5-0.7,0.2-1.4-0.6-2    l-1.7-1.1l-1.5,2.2L25.5,86.4z"></path>			<path d="M28.9,92.3l2.6-6c0.2-0.4,0.6-0.5,0.9-0.4l4.2,1.8c0.3,0.1,0.5,0.5,0.3,0.8c-0.1,0.3-0.5,0.5-0.8,0.3l-3.6-1.5l-0.8,1.9    l3.1,1.3c0.3,0.1,0.5,0.5,0.3,0.8c-0.1,0.3-0.5,0.5-0.8,0.3l-3.1-1.3l-0.8,2l3.6,1.6c0.3,0.1,0.5,0.5,0.3,0.8    c-0.1,0.3-0.5,0.5-0.8,0.3l-4.3-1.8C28.9,93.1,28.8,92.7,28.9,92.3z"></path>			<path d="M40.5,90.2l-1.9-0.4c-0.4-0.1-0.6-0.4-0.5-0.8c0.1-0.3,0.4-0.6,0.8-0.5l5.1,1.1c0.3,0.1,0.6,0.4,0.5,0.8    c-0.1,0.3-0.4,0.6-0.8,0.5l-1.9-0.4l-1.3,5.9c-0.1,0.4-0.5,0.6-0.8,0.5c-0.4-0.1-0.6-0.4-0.5-0.8L40.5,90.2z"></path>			<path d="M45.8,94.5l0.1-3.9c0-0.4,0.3-0.7,0.7-0.7c0.4,0,0.7,0.3,0.7,0.7l-0.1,3.9c0,1.5,0.7,2.3,2,2.3c1.2,0,2-0.7,2-2.2    l0.1-3.9c0-0.4,0.3-0.7,0.7-0.7c0.4,0,0.7,0.3,0.7,0.7l-0.1,3.9c0,2.4-1.4,3.5-3.5,3.5C47.1,98,45.8,96.8,45.8,94.5z"></path>			<path d="M54.7,90.5c-0.1-0.4,0.2-0.7,0.6-0.8l2.8-0.5c1-0.2,1.8,0,2.4,0.3c0.5,0.3,0.8,0.9,1,1.6l0,0c0.2,1.2-0.3,2.1-1.3,2.7    l1.8,1.6c0.2,0.1,0.3,0.3,0.3,0.5c0.1,0.4-0.2,0.7-0.5,0.8c-0.3,0.1-0.5,0-0.7-0.2l-2.3-2l-1.7,0.3l0.4,2.1    c0.1,0.4-0.2,0.7-0.5,0.8C56.4,97.6,56,97.4,56,97L54.7,90.5z M58.7,93c1-0.2,1.5-0.8,1.3-1.6l0,0c-0.2-0.8-0.8-1.2-1.9-1l-2,0.4    l0.5,2.6L58.7,93z"></path>			<path d="M62.8,88.7c-0.2-0.4,0-0.8,0.4-0.9l0.1-0.1c0.3-0.1,0.6-0.1,0.8,0.1l5.6,3.2l-1.9-4.5c-0.1-0.3,0-0.7,0.4-0.9    c0.4-0.2,0.8,0,0.9,0.4l2.6,6.1c0.2,0.4,0,0.7-0.4,0.9l-0.1,0c-0.3,0.1-0.6,0.1-0.8-0.1l-5.8-3.2l2,4.6c0.1,0.3,0,0.7-0.4,0.9    c-0.4,0.2-0.8,0-0.9-0.4L62.8,88.7z"></path>			<path d="M74.5,90.2c-0.2,0-0.4-0.1-0.5-0.3c-0.2-0.3-0.1-0.7,0.2-0.9c0.2-0.1,0.3-0.1,0.4-0.1c0.8,0.1,1.6-0.1,2.3-0.6    c0.7-0.5,0.9-1.1,0.6-1.6l0,0c-0.3-0.5-0.8-0.5-2.2,0c-1.6,0.6-2.7,0.8-3.5-0.4l0,0c-0.8-1.1-0.4-2.5,0.9-3.4    c0.8-0.6,1.6-0.8,2.5-0.8c0.2,0,0.4,0.1,0.6,0.3c0.2,0.3,0.1,0.7-0.2,0.9c-0.1,0.1-0.2,0.1-0.4,0.1c-0.7,0-1.3,0.2-1.8,0.5    c-0.7,0.5-0.8,1.1-0.5,1.5l0,0c0.3,0.5,0.8,0.5,2.3-0.1c1.6-0.6,2.7-0.6,3.4,0.5l0,0c0.8,1.2,0.4,2.6-1,3.5    C76.6,90,75.6,90.3,74.5,90.2z"></path>		</g>	</g>	<g>		<g>			<g>				<path d="M50,69.7c-0.1,0-0.2,0-0.3-0.1l-15.6-9c-0.2-0.1-0.3-0.3-0.3-0.5v-18c0-0.2,0.1-0.4,0.3-0.5l15.6-9     c0.2-0.1,0.4-0.1,0.6,0l15.6,9c0.2,0.1,0.3,0.3,0.3,0.5v18c0,0.2-0.1,0.4-0.3,0.5l-15.6,9C50.2,69.7,50.1,69.7,50,69.7z      M35,59.7l15,8.7l15-8.7V42.4l-15-8.7l-15,8.7V59.7z"></path>				<path d="M50,51.7c-0.2,0-0.4-0.1-0.5-0.3c-0.2-0.3-0.1-0.7,0.2-0.8l15.6-9c0.3-0.2,0.7-0.1,0.8,0.2c0.2,0.3,0.1,0.7-0.2,0.8     l-15.6,9C50.2,51.7,50.1,51.7,50,51.7z"></path>				<path d="M50,69.7c-0.3,0-0.6-0.3-0.6-0.6v-18c0-0.3,0.3-0.6,0.6-0.6s0.6,0.3,0.6,0.6v18C50.6,69.4,50.3,69.7,50,69.7z"></path>				<path d="M50,51.7c-0.1,0-0.2,0-0.3-0.1l-15.6-9c-0.3-0.2-0.4-0.5-0.2-0.8c0.2-0.3,0.5-0.4,0.8-0.2l15.6,9     c0.3,0.2,0.4,0.5,0.2,0.8C50.4,51.6,50.2,51.7,50,51.7z"></path>				<path d="M57.8,47.2c-0.1,0-0.2,0-0.3-0.1l-15.6-9c-0.3-0.2-0.4-0.5-0.2-0.8c0.2-0.3,0.5-0.4,0.8-0.2l15.6,9     c0.3,0.2,0.4,0.5,0.2,0.8C58.2,47.1,58,47.2,57.8,47.2z"></path>			</g>		</g>		<path d="M50,77.8c-15,0-27.2-12.2-27.2-27.2c0-15,12.2-27.2,27.2-27.2c0.3,0,0.6,0.3,0.6,0.6c0,0.3-0.3,0.6-0.6,0.6   c-14.3,0-26,11.6-26,26c0,14.3,11.6,26,26,26c14.3,0,26-11.6,26-26c0-11.8-8-22.1-19.4-25.1c-0.3-0.1-0.5-0.4-0.4-0.7   c0.1-0.3,0.4-0.5,0.7-0.4c12,3.1,20.3,13.9,20.3,26.3C77.2,65.6,65,77.8,50,77.8z"></path>		<g>			<path d="M45.9,28.8c-0.2,0-0.3-0.1-0.4-0.2c-0.2-0.2-0.2-0.6,0-0.9l3.7-3.7l-3.7-3.7c-0.2-0.2-0.2-0.6,0-0.9    c0.2-0.2,0.6-0.2,0.9,0l4.1,4.1c0.2,0.2,0.2,0.6,0,0.9l-4.1,4.1C46.2,28.7,46,28.8,45.9,28.8z"></path>		</g>		<path d="M57.9,54.3c-0.3,0-0.6-0.3-0.6-0.6v-6.6c0-0.3,0.3-0.6,0.6-0.6s0.6,0.3,0.6,0.6v6.6C58.5,54.1,58.2,54.3,57.9,54.3z"></path>	</g></g></svg>