<svg xmlns="http://www.w3.org/2000/svg" xmlns:xlink="http://www.w3.org/1999/xlink" x="0px" y="0px" viewBox="0 0 100 100" style="enable-background:new 0 0 100 100;" xml:space="preserve"><g>	<g>		<g>			<g>				<g>					<path d="M56.8,40c-0.3,0-0.6-0.3-0.6-0.6v-4.8c0-0.3,0.3-0.6,0.6-0.6c0.3,0,0.6,0.3,0.6,0.6v4.8C57.4,39.7,57.2,40,56.8,40z"></path>					<path d="M46.8,40c-0.3,0-0.6-0.3-0.6-0.6v-4.8c0-0.3,0.3-0.6,0.6-0.6c0.3,0,0.6,0.3,0.6,0.6v4.8C47.4,39.7,47.1,40,46.8,40z"></path>				</g>				<path d="M56.8,35.2c-0.3,0-0.6-0.3-0.6-0.6c0-2.4-2-4.4-4.4-4.4c-2.4,0-4.4,2-4.4,4.4c0,0.3-0.3,0.6-0.6,0.6     c-0.3,0-0.6-0.3-0.6-0.6c0-3.1,2.5-5.6,5.6-5.6c3.1,0,5.6,2.5,5.6,5.6C57.4,34.9,57.2,35.2,56.8,35.2z"></path>				<path d="M60.3,56.6H43.3c-1.5,0-2.7-1.2-2.7-2.7V41.5c0-1.5,1.2-2.7,2.7-2.7h16.9c1.5,0,2.7,1.2,2.7,2.7v12.4     C63,55.4,61.8,56.6,60.3,56.6z M43.3,40c-0.8,0-1.5,0.7-1.5,1.5v12.4c0,0.8,0.7,1.5,1.5,1.5h16.9c0.8,0,1.5-0.7,1.5-1.5V41.5     c0-0.8-0.7-1.5-1.5-1.5H43.3z"></path>				<path d="M51.8,49.8c-0.3,0-0.6-0.3-0.6-0.6v-3c0-0.3,0.3-0.6,0.6-0.6s0.6,0.3,0.6,0.6v3C52.4,49.5,52.1,49.8,51.8,49.8z"></path>			</g>			<path d="M67.9,64H35.7c-0.3,0-0.6-0.3-0.6-0.6s0.3-0.6,0.6-0.6h31.7l4.9-17.3H67c-0.3,0-0.6-0.3-0.6-0.6s0.3-0.6,0.6-0.6h6.1    c0.2,0,0.4,0.1,0.5,0.2c0.1,0.2,0.2,0.4,0.1,0.5l-5.2,18.5C68.4,63.8,68.2,64,67.9,64z"></path>			<path d="M36.6,45.5h-6.1c-0.3,0-0.6-0.3-0.6-0.6s0.3-0.6,0.6-0.6h6.1c0.3,0,0.6,0.3,0.6,0.6S36.9,45.5,36.6,45.5z"></path>			<g>				<g>					<path d="M42.1,74c-1.9,0-3.5-1.6-3.5-3.5c0-1.9,1.6-3.5,3.5-3.5c1.9,0,3.5,1.6,3.5,3.5C45.6,72.5,44.1,74,42.1,74z M42.1,68.3      c-1.2,0-2.2,1-2.2,2.2c0,1.2,1,2.2,2.2,2.2s2.2-1,2.2-2.2C44.4,69.3,43.4,68.3,42.1,68.3z"></path>				</g>				<g>					<path d="M61.5,74c-1.9,0-3.5-1.6-3.5-3.5c0-1.9,1.6-3.5,3.5-3.5c1.9,0,3.5,1.6,3.5,3.5C64.9,72.5,63.4,74,61.5,74z M61.5,68.3      c-1.2,0-2.2,1-2.2,2.2c0,1.2,1,2.2,2.2,2.2s2.2-1,2.2-2.2C63.7,69.3,62.7,68.3,61.5,68.3z"></path>				</g>			</g>			<path d="M35.7,64c-0.3,0-0.5-0.2-0.6-0.4l-7.5-26.5c-0.4-1.4-1.7-2.4-3.1-2.4h-3c-0.3,0-0.6-0.3-0.6-0.6s0.3-0.6,0.6-0.6h3    c2,0,3.8,1.3,4.3,3.3l7.5,26.5c0.1,0.3-0.1,0.7-0.4,0.8C35.8,64,35.8,64,35.7,64z"></path>		</g>	</g>	<g>		<path d="M6.2,49.6L6.2,49.6c-0.9,0-1.6-0.8-1.5-1.7c0-0.9,0.8-1.6,1.7-1.5l0,0c0.9,0,1.6,0.8,1.5,1.7C7.8,49,7.1,49.7,6.2,49.6z"></path>		<path d="M7.5,39.1L7.5,39.1c-0.9-0.3-1.3-1.2-1.1-2c0.2-0.8,1.1-1.3,2-1.1l0,0c0.8,0.2,1.3,1.1,1.1,2C9.2,38.9,8.4,39.4,7.5,39.1z   "></path>		<path d="M11.3,29.3L11.3,29.3c-0.8-0.5-1-1.4-0.6-2.2c0.4-0.7,1.4-1,2.2-0.6l0,0c0.8,0.4,1,1.4,0.6,2.2   C13.1,29.5,12.1,29.7,11.3,29.3z"></path>		<path d="M17.4,20.6L17.4,20.6c-0.7-0.6-0.7-1.7-0.1-2.3c0.6-0.6,1.6-0.7,2.3,0l0,0c0.6,0.6,0.6,1.6,0,2.2   C19,21.2,18,21.2,17.4,20.6z"></path>		<path d="M25.3,13.6L25.3,13.6c-0.5-0.8-0.2-1.8,0.5-2.2c0.7-0.5,1.7-0.2,2.2,0.5l0,0c0.5,0.7,0.2,1.7-0.5,2.2   C26.8,14.6,25.8,14.4,25.3,13.6z"></path>		<path d="M34.6,6l-0.7,0.5c-0.1,0-0.2,0.1-0.2,0.1c-0.3,0.1-0.7-0.1-0.8-0.4c-0.1-0.3,0-0.6,0.2-0.7l1-0.8c0.2-0.2,0.4-0.3,0.6-0.3   l0,0c0.4-0.1,0.8,0.1,0.9,0.4l2.2,6.3c0.1,0.4-0.1,0.8-0.4,0.9c-0.4,0.1-0.8-0.1-0.9-0.4L34.6,6z"></path>		<path d="M39.3,7.3L39.3,7.3C39,5,40,3,42.1,2.6c2-0.3,3.7,1.2,4.1,3.4l0,0c0.4,2.2-0.7,4.3-2.7,4.6C41.4,11.1,39.7,9.5,39.3,7.3z    M44.7,6.3L44.7,6.3c-0.3-1.6-1.3-2.7-2.5-2.5C41,4.1,40.5,5.4,40.7,7l0,0C41,8.5,42,9.7,43.2,9.5C44.4,9.3,45,7.9,44.7,6.3z"></path>		<path d="M48.5,6L48.5,6c0.1-2.3,1.6-4.1,3.6-4c2.1,0.1,3.4,2,3.3,4.2l0,0c-0.1,2.3-1.6,4-3.6,3.9C49.7,10.1,48.4,8.2,48.5,6z    M54,6.2L54,6.2c0.1-1.6-0.7-2.9-1.9-2.9C50.8,3.2,50,4.4,49.9,6l0,0c-0.1,1.6,0.7,2.9,1.9,2.9C53.1,9,53.9,7.7,54,6.2z"></path>		<path d="M58,10l6.9-5.5c0.1-0.1,0.3-0.1,0.4-0.1c0.2,0.1,0.4,0.3,0.3,0.5c0,0.1-0.1,0.2-0.2,0.3l-6.9,5.5   c-0.1,0.1-0.3,0.1-0.4,0.1c-0.2-0.1-0.4-0.3-0.3-0.5C57.8,10.1,57.9,10,58,10z M58.1,4.5L58.1,4.5c0.3-1.1,1.3-1.8,2.4-1.5   c1.1,0.3,1.5,1.4,1.3,2.4l0,0c-0.3,1.1-1.3,1.8-2.3,1.5C58.3,6.7,57.8,5.6,58.1,4.5z M60.7,5.3L60.7,5.3c0.2-0.6,0-1.2-0.5-1.4   c-0.5-0.1-1,0.3-1.1,0.9l0,0c-0.2,0.6,0,1.2,0.5,1.3C60.1,6.3,60.6,5.9,60.7,5.3z M61.6,9.7L61.6,9.7c0.3-1.1,1.3-1.8,2.4-1.5   c1.1,0.3,1.5,1.4,1.3,2.4l0,0c-0.3,1.1-1.3,1.8-2.3,1.5C61.8,11.8,61.4,10.8,61.6,9.7z M64.3,10.4L64.3,10.4   c0.2-0.6,0-1.2-0.5-1.4c-0.5-0.1-1,0.3-1.1,0.9l0,0c-0.2,0.6,0,1.2,0.5,1.3C63.7,11.4,64.1,11,64.3,10.4z"></path>		<path d="M71.9,11.8L71.9,11.8c0.5-0.8,1.5-1,2.2-0.5c0.7,0.5,1,1.4,0.5,2.2l0,0c-0.5,0.7-1.5,1-2.2,0.5   C71.7,13.6,71.5,12.6,71.9,11.8z"></path>		<path d="M80.4,18.1L80.4,18.1c0.6-0.6,1.7-0.6,2.3,0c0.6,0.6,0.6,1.6,0,2.3l0,0c-0.6,0.6-1.6,0.6-2.2,0   C79.8,19.8,79.8,18.8,80.4,18.1z"></path>		<path d="M87.1,26.3L87.1,26.3c0.8-0.5,1.8-0.2,2.2,0.6c0.4,0.7,0.2,1.7-0.6,2.2l0,0c-0.8,0.4-1.7,0.2-2.2-0.6   C86.1,27.7,86.3,26.7,87.1,26.3z"></path>		<path d="M91.7,35.8L91.7,35.8c0.9-0.3,1.8,0.2,2,1.1c0.2,0.8-0.2,1.7-1.1,2l0,0c-0.8,0.3-1.7-0.2-2-1.1   C90.4,37,90.8,36.1,91.7,35.8z"></path>		<path d="M93.8,46.2L93.8,46.2c0.9,0,1.7,0.7,1.7,1.5c0,0.9-0.6,1.6-1.5,1.7l0,0c-0.9,0-1.6-0.6-1.7-1.5C92.3,47,93,46.2,93.8,46.2   z"></path>	</g>	<g>		<g>			<path d="M3.4,57c0.1-0.2,0.2-0.3,0.5-0.4c0.4-0.1,0.7,0.2,0.8,0.5c0,0.2,0,0.3,0,0.4c-0.4,0.7-0.5,1.5-0.3,2.3s0.7,1.3,1.3,1.2    l0,0c0.6-0.1,0.8-0.5,0.8-2c0-1.7,0.3-2.8,1.8-3.1l0,0c1.3-0.3,2.5,0.6,2.8,2.2c0.2,1,0.1,1.8-0.2,2.6c-0.1,0.2-0.2,0.4-0.5,0.4    c-0.4,0.1-0.7-0.2-0.8-0.5c0-0.1,0-0.3,0-0.4c0.3-0.7,0.3-1.3,0.2-1.9c-0.2-0.8-0.7-1.2-1.2-1.1l0,0c-0.6,0.1-0.8,0.5-0.8,2.1    c-0.1,1.7-0.5,2.7-1.7,3l0,0c-1.4,0.3-2.6-0.6-2.9-2.3C2.8,59.1,2.9,58,3.4,57z"></path>			<path d="M5.3,65.6l6-2.5c0.4-0.2,0.8,0,0.9,0.4l1.8,4.2c0.1,0.3,0,0.7-0.3,0.8c-0.3,0.1-0.7,0-0.8-0.3l-1.5-3.6l-1.9,0.8l1.3,3.1    c0.1,0.3,0,0.7-0.3,0.8c-0.3,0.1-0.7,0-0.8-0.3l-1.3-3.1l-2,0.8l1.5,3.7c0.1,0.3,0,0.7-0.3,0.8c-0.3,0.1-0.7,0-0.8-0.3L5,66.5    C4.8,66.2,5,65.8,5.3,65.6z"></path>			<path d="M11.4,71.5L11.4,71.5c1.9-1.3,4.4-0.9,5.7,1.1c0.7,1,0.8,1.9,0.8,2.8c0,0.2-0.1,0.4-0.3,0.5c-0.3,0.2-0.7,0.1-0.9-0.2    c-0.1-0.2-0.1-0.3-0.1-0.4c0.1-0.7,0-1.3-0.5-2c-0.8-1.2-2.5-1.5-3.8-0.6l0,0c-1.3,0.9-1.7,2.5-0.9,3.7c0.5,0.7,1,1,1.7,1.2    c0.1,0,0.3,0.1,0.4,0.3c0.2,0.3,0.1,0.7-0.2,0.9c-0.2,0.1-0.4,0.1-0.5,0.1c-1-0.3-1.8-0.7-2.5-1.8C9,75.2,9.5,72.7,11.4,71.5z"></path>			<path d="M16.4,79.5l2.7-2.8c0.3-0.3,0.7-0.3,1,0c0.3,0.3,0.3,0.7,0,1l-2.7,2.8c-1,1.1-1,2.1-0.1,3c0.9,0.9,1.9,0.9,3-0.2l2.7-2.8    c0.3-0.3,0.7-0.3,1,0c0.3,0.3,0.3,0.7,0,1l-2.7,2.8c-1.7,1.7-3.4,1.6-4.9,0.2C14.9,82.9,14.8,81.1,16.4,79.5z"></path>			<path d="M25.6,82.7c0.2-0.3,0.6-0.4,1-0.2L29,84c0.8,0.5,1.3,1.2,1.5,1.9c0.1,0.6,0,1.2-0.4,1.8l0,0c-0.7,1.1-1.7,1.3-2.8,1    l0.3,2.4c0,0.2,0,0.4-0.1,0.6c-0.2,0.3-0.6,0.4-0.9,0.2c-0.3-0.2-0.4-0.4-0.4-0.7l-0.3-3.1l-1.5-0.9L23.2,89    c-0.2,0.3-0.6,0.4-1,0.2c-0.3-0.2-0.4-0.6-0.2-1L25.6,82.7z M26.8,87.3c0.8,0.5,1.7,0.4,2.1-0.2l0,0c0.5-0.7,0.2-1.4-0.7-2    L26.5,84L25,86.2L26.8,87.3z"></path>			<path d="M30.4,93.1l2.4-6.1c0.1-0.4,0.5-0.5,0.9-0.4l4.3,1.7c0.3,0.1,0.5,0.5,0.4,0.8c-0.1,0.3-0.5,0.5-0.8,0.4L33.9,88l-0.7,1.9    l3.2,1.2c0.3,0.1,0.5,0.5,0.4,0.8c-0.1,0.3-0.5,0.5-0.8,0.3l-3.2-1.2l-0.8,2l3.7,1.4c0.3,0.1,0.5,0.5,0.4,0.8    c-0.1,0.3-0.5,0.5-0.8,0.4L30.8,94C30.4,93.8,30.3,93.4,30.4,93.1z"></path>			<path d="M43,93.6L43,93.6c0.2-2.3,2-4,4.4-3.8c1.2,0.1,2,0.5,2.6,1.1c0.1,0.1,0.2,0.3,0.2,0.6c0,0.4-0.4,0.7-0.7,0.6    c-0.2,0-0.3-0.1-0.4-0.2c-0.5-0.5-1.1-0.8-1.8-0.9c-1.5-0.1-2.7,1-2.8,2.6l0,0c-0.1,1.5,0.9,2.9,2.4,3c0.8,0.1,1.4-0.2,2-0.6    C49,96,49.2,96,49.3,96c0.3,0,0.6,0.3,0.6,0.7c0,0.2-0.1,0.4-0.3,0.5c-0.8,0.6-1.7,0.9-2.9,0.8C44.4,97.8,42.8,95.9,43,93.6z"></path>			<path d="M52,90.8c0-0.4,0.2-0.7,0.6-0.8c0.4,0,0.7,0.2,0.8,0.6l0.3,2.6l3.7-0.5l-0.3-2.6c0-0.4,0.2-0.7,0.6-0.8    c0.4-0.1,0.7,0.2,0.8,0.6l0.8,6.6c0,0.4-0.2,0.7-0.6,0.8c-0.4,0-0.7-0.2-0.8-0.6L57.7,94l-3.7,0.5l0.3,2.7c0,0.4-0.2,0.7-0.6,0.8    c-0.4,0.1-0.7-0.2-0.8-0.6L52,90.8z"></path>			<path d="M62.8,95.6l-2.1-6.2c-0.1-0.4,0.1-0.8,0.4-0.9l4.4-1.5c0.3-0.1,0.7,0.1,0.8,0.4c0.1,0.3-0.1,0.7-0.4,0.8l-3.7,1.3    l0.7,1.9l3.2-1.1c0.3-0.1,0.7,0.1,0.8,0.4c0.1,0.3-0.1,0.7-0.4,0.8l-3.2,1.1l0.7,2l3.8-1.3c0.3-0.1,0.7,0.1,0.8,0.4    c0.1,0.3-0.1,0.7-0.4,0.8l-4.4,1.5C63.3,96.2,62.9,96,62.8,95.6z"></path>			<path d="M69.1,89.9L69.1,89.9c-1.1-2-0.6-4.4,1.5-5.6c1.1-0.6,1.9-0.7,2.8-0.6c0.2,0,0.4,0.1,0.5,0.3c0.2,0.3,0.1,0.7-0.3,0.9    c-0.2,0.1-0.3,0.1-0.4,0.1c-0.7-0.1-1.3-0.1-2,0.3c-1.3,0.8-1.6,2.4-0.9,3.7l0,0c0.8,1.3,2.4,1.9,3.7,1.1    c0.7-0.4,1.1-0.9,1.3-1.6c0-0.1,0.1-0.3,0.3-0.3c0.3-0.2,0.7-0.1,0.9,0.2c0.1,0.2,0.1,0.4,0.1,0.5c-0.3,0.9-0.8,1.7-2,2.4    C72.6,92.6,70.2,91.9,69.1,89.9z"></path>			<path d="M74.9,82.4c-0.3-0.3-0.2-0.7,0.1-1c0.3-0.3,0.7-0.2,1,0.1l2.2,2.5l0.3-5.3c0-0.2,0.1-0.4,0.3-0.6    c0.3-0.3,0.7-0.2,0.9,0.1c0.1,0.2,0.2,0.3,0.2,0.6l-0.3,3.4l4.2,0.7c0.2,0,0.3,0.1,0.5,0.2c0.3,0.3,0.2,0.7-0.1,1    c-0.2,0.2-0.4,0.2-0.7,0.1l-4.1-0.7l-0.1,1.8l1.1,1.2c0.3,0.3,0.2,0.7-0.1,1c-0.3,0.3-0.7,0.2-1-0.1L74.9,82.4z"></path>			<path d="M83.1,79.5L83.1,79.5c-1.8-1.3-2.3-3.8-0.8-5.8c1.4-2,3.9-2.2,5.7-0.9l0,0c1.8,1.3,2.3,3.8,0.8,5.8    C87.4,80.5,84.9,80.8,83.1,79.5z M87.2,74L87.2,74c-1.3-0.9-2.9-0.8-3.9,0.5c-0.9,1.3-0.6,2.9,0.7,3.8l0,0    c1.2,0.9,2.9,0.8,3.9-0.5C88.7,76.5,88.4,74.9,87.2,74z"></path>			<path d="M89.7,70.9l-3.6-1.6c-0.4-0.2-0.5-0.6-0.4-0.9c0.2-0.4,0.6-0.5,0.9-0.4l3.5,1.6c1.3,0.6,2.4,0.2,2.9-0.9    c0.5-1.1,0.1-2.1-1.2-2.7l-3.6-1.6c-0.4-0.2-0.5-0.6-0.4-0.9c0.2-0.4,0.6-0.5,0.9-0.4l3.5,1.5c2.2,0.9,2.7,2.6,1.9,4.5    C93.4,71.1,91.8,71.9,89.7,70.9z"></path>			<path d="M90.4,59.5L90,61.4c-0.1,0.4-0.4,0.6-0.8,0.5c-0.3-0.1-0.6-0.4-0.5-0.8l1.1-5.1c0.1-0.3,0.4-0.6,0.8-0.5    c0.3,0.1,0.6,0.4,0.5,0.8l-0.4,1.9l5.9,1.3c0.4,0.1,0.6,0.5,0.5,0.8c-0.1,0.4-0.4,0.6-0.8,0.5L90.4,59.5z"></path>		</g>	</g></g></svg>