<svg xmlns="http://www.w3.org/2000/svg" xmlns:xlink="http://www.w3.org/1999/xlink" x="0px" y="0px" viewBox="0 0 100 100" style="enable-background:new 0 0 100 100;" xml:space="preserve"><g>	<g>		<path d="M6,46.8L6,46.8c-0.9-0.1-1.5-0.9-1.4-1.8c0.1-0.9,0.9-1.5,1.8-1.4l0,0c0.9,0.1,1.5,0.9,1.4,1.8C7.6,46.2,6.8,46.9,6,46.8z   "></path>		<path d="M7.9,36.4L7.9,36.4c-0.9-0.3-1.3-1.2-1-2.1c0.3-0.8,1.2-1.3,2-1l0,0c0.8,0.3,1.2,1.2,0.9,2C9.7,36.3,8.8,36.7,7.9,36.4z"></path>		<path d="M12.4,26.8L12.4,26.8c-0.8-0.5-0.9-1.5-0.5-2.2c0.5-0.7,1.5-0.9,2.2-0.4l0,0c0.7,0.5,0.9,1.5,0.4,2.2   C14.1,27.1,13.1,27.3,12.4,26.8z"></path>		<path d="M16.7,16c-0.2-0.3-0.2-0.7,0.1-1l0.1-0.1c0.3-0.2,0.5-0.2,0.8-0.2l6.3,1.4l-3.1-3.7c-0.2-0.3-0.2-0.7,0.1-1   c0.3-0.2,0.7-0.2,1,0.1l4.3,5.1c0.2,0.3,0.2,0.7-0.1,1l0,0c-0.3,0.2-0.5,0.2-0.8,0.1l-6.5-1.4l3.2,3.8c0.2,0.3,0.2,0.7-0.1,1   c-0.3,0.2-0.7,0.2-1-0.1L16.7,16z"></path>		<path d="M26.4,12.4L26.4,12.4c-1-2-0.3-4.5,1.9-5.5c2.2-1.1,4.5-0.2,5.5,1.8l0,0c1,2,0.3,4.4-1.9,5.5   C29.7,15.3,27.4,14.4,26.4,12.4z M32.5,9.4L32.5,9.4c-0.7-1.4-2.3-2-3.7-1.3c-1.4,0.7-1.8,2.3-1.1,3.7l0,0c0.7,1.4,2.3,2,3.7,1.3   C32.8,12.3,33.2,10.7,32.5,9.4z"></path>		<path d="M35.7,4.6c-0.1-0.4,0.1-0.8,0.5-0.8l0.1,0c0.3-0.1,0.6,0,0.8,0.2l5,4.1l-1.1-4.7c-0.1-0.4,0.1-0.7,0.5-0.8   C42,2.4,42.3,2.6,42.4,3l1.5,6.5c0.1,0.4-0.1,0.7-0.5,0.8l-0.1,0c-0.3,0.1-0.6,0-0.8-0.2l-5.2-4.2l1.1,4.9   c0.1,0.4-0.1,0.7-0.5,0.8c-0.4,0.1-0.7-0.1-0.8-0.5L35.7,4.6z"></path>		<path d="M45.9,6.5c0-0.4,0.3-0.7,0.6-0.7l2.1-0.1c0.4,0,0.7,0.3,0.7,0.6c0,0.4-0.3,0.7-0.6,0.7l-2.1,0.1   C46.2,7.2,45.9,6.9,45.9,6.5z"></path>		<path d="M51.1,8.9c-0.1-0.1-0.2-0.3-0.2-0.6c0-0.4,0.4-0.6,0.7-0.6c0.2,0,0.3,0.1,0.4,0.2c0.6,0.6,1.3,0.9,2.1,1   C55,9,55.6,8.7,55.7,8.1l0,0c0.1-0.6-0.2-0.9-1.7-1.4c-1.6-0.6-2.5-1.2-2.4-2.6l0,0c0.1-1.4,1.4-2.2,2.9-2c1,0.1,1.8,0.4,2.4,1   c0.1,0.1,0.3,0.3,0.2,0.6c0,0.4-0.4,0.6-0.7,0.6c-0.1,0-0.2-0.1-0.4-0.1c-0.6-0.5-1.1-0.7-1.8-0.8c-0.8-0.1-1.3,0.3-1.4,0.8l0,0   c-0.1,0.6,0.3,0.9,1.8,1.4c1.6,0.6,2.4,1.3,2.3,2.6l0,0c-0.1,1.5-1.4,2.2-3.1,2.1C52.9,10.1,51.9,9.6,51.1,8.9z"></path>		<path d="M62.4,4.9l-1.8-0.5c-0.3-0.1-0.5-0.5-0.4-0.8c0.1-0.3,0.5-0.5,0.8-0.4l5,1.5c0.3,0.1,0.5,0.5,0.4,0.8   c-0.1,0.3-0.5,0.5-0.8,0.4l-1.9-0.5L62,11.1c-0.1,0.4-0.5,0.6-0.9,0.5c-0.4-0.1-0.6-0.5-0.5-0.9L62.4,4.9z"></path>		<path d="M66.9,9.1L66.9,9.1c1.1-2,3.5-2.8,5.6-1.7c2.1,1.2,2.8,3.6,1.7,5.5l0,0c-1.1,2-3.5,2.8-5.6,1.6   C66.5,13.5,65.9,11.1,66.9,9.1z M73,12.4L73,12.4c0.7-1.4,0.4-3-1-3.8c-1.4-0.7-2.9-0.2-3.7,1.2l0,0c-0.7,1.4-0.3,3,1,3.7   C70.7,14.3,72.2,13.7,73,12.4z"></path>		<path d="M78.6,12.3c0.3-0.3,0.7-0.3,1-0.1l1.8,1.6c1.4,1.2,1.6,2.8,0.5,4l0,0c-1.2,1.3-2.8,1.1-4.2,0l-1.2-1l-1.3,1.4   c-0.3,0.3-0.7,0.3-1,0.1c-0.3-0.3-0.3-0.7-0.1-1L78.6,12.3z M78.6,16.8c0.8,0.7,1.7,0.7,2.2,0l0,0c0.6-0.7,0.4-1.5-0.4-2.2   l-1.2-1.1l-1.9,2.2L78.6,16.8z"></path>		<path d="M85.4,23.9L85.4,23.9c0.8-0.5,1.8-0.3,2.2,0.4c0.5,0.7,0.3,1.7-0.4,2.2l0,0c-0.7,0.5-1.7,0.3-2.2-0.4   C84.5,25.4,84.6,24.4,85.4,23.9z"></path>		<path d="M90.5,33.1L90.5,33.1c0.9-0.3,1.8,0.1,2.1,1c0.3,0.8-0.1,1.7-0.9,2l0,0c-0.8,0.3-1.7-0.1-2-1   C89.3,34.4,89.7,33.5,90.5,33.1z"></path>		<path d="M93.3,43.4L93.3,43.4c0.9-0.1,1.7,0.6,1.8,1.4c0.1,0.9-0.5,1.7-1.4,1.8l0,0c-0.9,0.1-1.7-0.5-1.7-1.4   C91.8,44.3,92.4,43.5,93.3,43.4z"></path>	</g>	<g>		<g>			<path d="M5.7,54.2L5.7,54.2c2.2-0.4,4.4,0.9,4.8,3.3c0.2,1.2,0,2.1-0.4,2.8c-0.1,0.2-0.3,0.3-0.5,0.4c-0.4,0.1-0.7-0.2-0.8-0.6    c0-0.2,0-0.3,0.1-0.4c0.3-0.6,0.5-1.2,0.4-2C9,56.2,7.6,55.3,6,55.6l0,0c-1.5,0.3-2.6,1.6-2.3,3.1c0.1,0.8,0.5,1.3,1.1,1.8    C4.9,60.6,5,60.7,5,60.9c0.1,0.3-0.2,0.7-0.5,0.8c-0.2,0-0.4,0-0.5-0.1c-0.8-0.6-1.3-1.4-1.6-2.6C2,56.6,3.5,54.6,5.7,54.2z"></path>			<path d="M7.1,63.5l3.6-1.5c0.4-0.1,0.8,0,0.9,0.4c0.1,0.4,0,0.8-0.4,0.9l-3.6,1.5c-1.4,0.6-1.8,1.6-1.3,2.7    c0.5,1.1,1.4,1.6,2.8,1l3.6-1.5c0.4-0.1,0.8,0,0.9,0.4c0.1,0.4,0,0.8-0.4,0.9l-3.6,1.5c-2.2,0.9-3.8,0.1-4.6-1.8    C4.3,66,5,64.4,7.1,63.5z"></path>			<path d="M8.8,73.4c0-0.2,0.1-0.4,0.3-0.5c0.3-0.2,0.7-0.1,0.9,0.2c0.1,0.2,0.1,0.3,0.1,0.4c-0.1,0.8,0.1,1.6,0.5,2.3    c0.5,0.7,1.1,0.9,1.6,0.6l0,0c0.5-0.3,0.6-0.7,0-2.2c-0.6-1.6-0.7-2.7,0.5-3.5l0,0c1.1-0.7,2.5-0.3,3.4,1    c0.5,0.8,0.8,1.6,0.8,2.5c0,0.2-0.1,0.4-0.3,0.6c-0.3,0.2-0.7,0.1-0.9-0.2c-0.1-0.1-0.1-0.2-0.1-0.4c0-0.7-0.2-1.3-0.5-1.9    c-0.4-0.7-1.1-0.8-1.5-0.6l0,0c-0.5,0.3-0.5,0.8,0,2.3c0.6,1.6,0.6,2.7-0.5,3.4l0,0c-1.2,0.8-2.6,0.3-3.5-1.1    C9.1,75.6,8.8,74.5,8.8,73.4z"></path>			<path d="M19.4,77.9L18,76.5c-0.3-0.3-0.2-0.7,0-0.9c0.3-0.2,0.7-0.2,0.9,0l3.6,3.8c0.2,0.3,0.2,0.7,0,0.9c-0.3,0.2-0.7,0.2-0.9,0    l-1.3-1.4L16,83.1c-0.3,0.3-0.7,0.2-1,0c-0.3-0.3-0.3-0.7,0-1L19.4,77.9z"></path>			<path d="M21.1,83.6L21.1,83.6c1.3-1.8,3.8-2.4,5.8-1c2,1.4,2.3,3.9,1,5.7l0,0c-1.3,1.8-3.8,2.4-5.8,1    C20.2,87.9,19.9,85.4,21.1,83.6z M26.7,87.5L26.7,87.5c0.9-1.3,0.7-3-0.6-3.9c-1.3-0.9-2.9-0.5-3.8,0.8l0,0    c-0.9,1.3-0.7,2.9,0.6,3.8C24.2,89.2,25.8,88.8,26.7,87.5z"></path>			<path d="M31.3,86.4c0.1-0.4,0.5-0.5,0.9-0.4l0.1,0.1c0.3,0.1,0.4,0.3,0.5,0.6l0.9,4.4l3.6-2.6c0.2-0.2,0.5-0.2,0.7-0.1l0.1,0.1    c0.4,0.1,0.5,0.6,0.4,0.9l-2.4,6.2c-0.1,0.4-0.5,0.5-0.9,0.4c-0.3-0.1-0.5-0.5-0.4-0.9l1.7-4.4l-2.9,2c-0.2,0.2-0.4,0.2-0.7,0.1    c-0.2-0.1-0.4-0.3-0.4-0.5l-0.7-3.4l-1.7,4.4c-0.1,0.4-0.5,0.5-0.9,0.4c-0.4-0.1-0.5-0.5-0.4-0.9L31.3,86.4z"></path>			<path d="M39.7,96.2l1-6.4c0.1-0.4,0.4-0.6,0.8-0.6l4.6,0.7c0.3,0.1,0.6,0.4,0.5,0.7c-0.1,0.3-0.4,0.6-0.7,0.5L42,90.5l-0.3,2    l3.4,0.5c0.3,0.1,0.6,0.4,0.5,0.7c-0.1,0.3-0.4,0.6-0.7,0.5l-3.4-0.5l-0.3,2.1l3.9,0.6c0.3,0.1,0.6,0.4,0.5,0.7    c-0.1,0.3-0.4,0.6-0.7,0.5L40.3,97C39.9,96.9,39.7,96.6,39.7,96.2z"></path>			<path d="M48.3,90.8c0-0.4,0.3-0.7,0.7-0.7l2.8-0.1c1,0,1.8,0.2,2.3,0.7c0.4,0.4,0.7,1,0.7,1.7l0,0c0,1.3-0.7,2.1-1.7,2.4l1.6,1.9    c0.1,0.2,0.2,0.3,0.2,0.5c0,0.4-0.3,0.7-0.6,0.7c-0.3,0-0.5-0.1-0.7-0.3l-2-2.4l-1.8,0.1l0.1,2.1c0,0.4-0.3,0.7-0.7,0.7    c-0.4,0-0.7-0.3-0.7-0.7L48.3,90.8z M51.9,93.8c1,0,1.6-0.6,1.6-1.4l0,0c0-0.8-0.7-1.3-1.7-1.3l-2,0.1l0.1,2.7L51.9,93.8z"></path>			<path d="M62.1,95.5c-0.2-0.1-0.4-0.2-0.4-0.4c-0.1-0.3,0.1-0.7,0.4-0.8c0.2-0.1,0.3,0,0.4,0c0.8,0.3,1.5,0.3,2.4,0.1    c0.8-0.3,1.2-0.8,1-1.4l0,0c-0.2-0.5-0.6-0.7-2.1-0.6c-1.7,0.1-2.8,0-3.2-1.4l0,0c-0.4-1.3,0.3-2.5,1.8-3    c0.9-0.3,1.8-0.3,2.6-0.1c0.2,0,0.4,0.2,0.5,0.4c0.1,0.3-0.1,0.7-0.4,0.8c-0.1,0-0.2,0-0.4,0c-0.7-0.2-1.3-0.2-1.9,0    c-0.8,0.3-1.1,0.8-0.9,1.3l0,0c0.2,0.6,0.6,0.7,2.2,0.6c1.7-0.1,2.7,0.2,3.1,1.4l0,0c0.5,1.4-0.4,2.6-1.9,3.1    C64.2,95.8,63.1,95.8,62.1,95.5z"></path>			<path d="M70.4,92.6l-3.2-5.7c-0.2-0.3-0.1-0.8,0.3-1l4-2.2c0.3-0.2,0.7-0.1,0.8,0.2c0.2,0.3,0.1,0.7-0.2,0.8l-3.4,1.9l1,1.8    l3-1.7c0.3-0.2,0.7-0.1,0.9,0.3c0.2,0.3,0.1,0.7-0.2,0.8l-3,1.7l1,1.9l3.5-1.9c0.3-0.2,0.7-0.1,0.8,0.2c0.2,0.3,0.1,0.7-0.2,0.8    l-4.1,2.3C71,93,70.6,92.9,70.4,92.6z"></path>			<path d="M73.8,83c-0.3-0.3-0.2-0.7,0.1-1l2.2-1.8c0.8-0.6,1.5-0.9,2.3-0.9c0.6,0.1,1.2,0.4,1.6,0.9l0,0c0.8,1,0.8,2,0.2,3    l2.4,0.5c0.2,0,0.4,0.1,0.5,0.3c0.2,0.3,0.2,0.7-0.1,0.9c-0.2,0.2-0.5,0.2-0.8,0.2l-3.1-0.6l-1.3,1.1l1.4,1.6    c0.2,0.3,0.2,0.7-0.1,1c-0.3,0.3-0.7,0.2-1-0.1L73.8,83z M78.5,83.3c0.8-0.6,0.9-1.4,0.4-2.1l0,0c-0.5-0.6-1.3-0.6-2.1,0.1    l-1.5,1.3l1.7,2L78.5,83.3z"></path>			<path d="M86.7,80l-6.8-1.9c-0.1,0-0.2-0.1-0.3-0.1c-0.3-0.2-0.3-0.7-0.1-1c0.2-0.3,0.5-0.3,0.8-0.2l5.9,1.8l-3.1-5.4    c-0.1-0.2-0.1-0.5,0.1-0.8c0.2-0.3,0.7-0.4,1-0.1c0.1,0.1,0.1,0.2,0.2,0.2l3.4,6.3c0.2,0.3,0.2,0.7-0.1,1l0,0.1    C87.4,80,87,80.1,86.7,80z"></path>			<path d="M84.8,70.8c-0.3-0.2-0.4-0.6-0.2-1c0.2-0.3,0.6-0.4,0.9-0.3l5.8,3.3c0.3,0.2,0.4,0.6,0.3,0.9c-0.2,0.3-0.6,0.5-0.9,0.3    L84.8,70.8z"></path>			<path d="M89.7,69.1L89.7,69.1c-2.1-0.8-3.2-3.1-2.3-5.3c0.4-1.1,1.1-1.8,1.8-2.2c0.2-0.1,0.4-0.1,0.6-0.1    c0.4,0.1,0.5,0.5,0.4,0.9c-0.1,0.2-0.2,0.3-0.3,0.3c-0.6,0.3-1.1,0.8-1.4,1.5c-0.5,1.4,0.2,2.9,1.7,3.5l0,0c1.4,0.6,3,0,3.6-1.4    c0.3-0.8,0.3-1.4,0-2.1c0-0.1-0.1-0.3,0-0.4c0.1-0.3,0.5-0.5,0.8-0.4c0.2,0.1,0.3,0.2,0.4,0.4c0.3,0.9,0.4,1.9-0.1,3.1    C94.1,69,91.8,70,89.7,69.1z"></path>			<path d="M96,60.8l-6.4-1.1c-0.4-0.1-0.6-0.4-0.6-0.8l0.8-4.5c0.1-0.3,0.4-0.6,0.7-0.5c0.3,0.1,0.6,0.4,0.5,0.7l-0.7,3.9l2,0.4    l0.6-3.4c0.1-0.3,0.4-0.6,0.7-0.5c0.3,0.1,0.6,0.4,0.5,0.7l-0.6,3.4l2.1,0.4l0.7-3.9c0.1-0.3,0.4-0.6,0.7-0.5    c0.3,0.1,0.6,0.4,0.5,0.7l-0.8,4.6C96.8,60.6,96.4,60.8,96,60.8z"></path>		</g>	</g>	<g>		<g>			<path d="M56.4,59.8c-0.3,0-0.6-0.3-0.6-0.6v-2.6h-5.5c-0.2,0-0.4-0.1-0.5-0.3c-0.1-0.2-0.1-0.4,0-0.6l6.1-8.8    c0.2-0.2,0.4-0.3,0.7-0.2c0.3,0.1,0.4,0.3,0.4,0.6v8.2h1.2c0.3,0,0.6,0.3,0.6,0.6c0,0.3-0.3,0.6-0.6,0.6H57v2.6    C57,59.5,56.8,59.8,56.4,59.8z M51.5,55.3h4.3v-6.3L51.5,55.3z"></path>			<g>				<path d="M48.6,59.8h-7.2c-0.3,0-0.5-0.2-0.6-0.4c-0.1-0.2,0-0.5,0.1-0.7l6.3-6c0.5-0.6,0.8-1.3,0.8-2.1c0-1.6-1.2-2.9-2.9-2.9     c-1.4,0-3.1,0.6-3.1,3.4c0,0.3-0.3,0.6-0.6,0.6c-0.3,0-0.6-0.3-0.6-0.6c0-2.9,1.6-4.6,4.3-4.6c2.4,0,4.1,1.8,4.1,4.1     c0,1.1-0.4,2.1-1.1,3c0,0,0,0-0.1,0.1l-5.1,4.9h5.7c0.3,0,0.6,0.3,0.6,0.6C49.2,59.5,49,59.8,48.6,59.8z"></path>			</g>		</g>		<g>			<g>				<path d="M32.2,62.2h-1.5c-2,0-3.7-1.7-3.7-3.7V46.3c0-0.3,0.3-0.6,0.6-0.6h4.6c2,0,3.7,1.6,3.7,3.7v9.2     C35.9,60.6,34.2,62.2,32.2,62.2z M28.2,46.9v11.6c0,1.4,1.1,2.4,2.4,2.4h1.5c1.4,0,2.4-1.1,2.4-2.4v-9.2c0-1.3-1.1-2.4-2.4-2.4     H28.2z"></path>				<path d="M69,62.2h-1.5c-2,0-3.7-1.6-3.7-3.7v-9.2c0-2,1.6-3.7,3.7-3.7H72c0.3,0,0.6,0.3,0.6,0.6v12.3C72.6,60.6,71,62.2,69,62.2     z M67.4,46.9c-1.4,0-2.4,1.1-2.4,2.4v9.2c0,1.4,1.1,2.4,2.4,2.4H69c1.3,0,2.4-1.1,2.4-2.4V46.9H67.4z"></path>				<path d="M72,51.4c-0.3,0-0.6-0.3-0.6-0.6v-4.4c0-11.9-9.7-21.6-21.6-21.6s-21.6,9.7-21.6,21.6v4.4c0,0.3-0.3,0.6-0.6,0.6     S27,51.1,27,50.8v-4.4c0-12.6,10.2-22.8,22.8-22.8s22.8,10.2,22.8,22.8v4.4C72.6,51.1,72.4,51.4,72,51.4z"></path>				<path d="M52.1,76.1h-4.6c-0.3,0-0.6-0.3-0.6-0.6v-1.5c0-0.3,0.3-0.6,0.6-0.6h4.6c0.3,0,0.6,0.3,0.6,0.6v1.5     C52.7,75.8,52.5,76.1,52.1,76.1z M48.1,74.9h3.4v-0.3h-3.4V74.9z"></path>				<path d="M57.2,76.1h-5.9c-0.3,0-0.6-0.3-0.6-0.6c0-0.3,0.3-0.6,0.6-0.6H57l14.4-13.3V47c0-0.3,0.3-0.6,0.6-0.6     c0.3,0,0.6,0.3,0.6,0.6v14.8c0,0.2-0.1,0.3-0.2,0.5L57.6,75.9C57.5,76,57.4,76.1,57.2,76.1z"></path>			</g>		</g>	</g></g></svg>